**ABCDEFGHIJKLMNOPQRSTUVWXYZabcdefghijklmnopqrstuvwxyz**************************
**PARASOLID !"#$%&'()*+,-./:;<=>?@[\]^_`{|}~0123456789**************************
**PART1;
MC=AMD64;
MC_MODEL=Intel64 Family 6 Model 60 Stepping 3, GenuineIntel;
MC_ID=unknown;
OS=Windows_NT;
OS_RELEASE=unknown;
FRU=Parasolid Version 28.0, build 209,  1-25-2016;
APPL=SOLIDWORKS 2016-2016095;
SITE=;
USER=unknown;
FORMAT=text;
GUISE=transmit;
KEY=Assem2;
FILE=Assem2.x_t;
DATE=Mon Sep 24 13:55:01 2018;
**PART2;
SCH=SCH_2800209_28002;
USFLD_SIZE=0;
**PART3;
**END_OF_HEADER*****************************************************************
T51 : TRANSMIT FILE created by modeller version 280020923 SCH_2800209_28002_1300
6200 0 10 255 1 5 2 3 0 0 0 0 0 1e3 1e-8 0 0 0 1 0 1 4 81 255 1 2 5 5 1 0 0 0 0
 0 70 11 CI9 list_type0 0 1 uI10 notransmit0 0 1 lCCCDCCDI12 finger_index0 0 1 d
I12 finger_block1012 0 CZ3 0 4 T1 0 0 1 20 1 6 6 11 255 4 3 0 1 7 8 1 9 0 0 0 12
 30 CCCCCCCCCCCCCDI5 owner1040 0 CCCCCCCCCA13 boundary_mesh1006 0 A16 index_map_
offset0 0 1 dA9 index_map82 0 A17 node_id_index_map82 0 A20 schema_embedding_map
82 0 A5 child12 0 A14 lowest_node_id0 0 1 dZ7 289 10 11 0 0 0 0 1e3 1e-8 4 12 0
 1 0 1 1 13 14 15 16 17 18 19 0 0 0 0 0 0 0 100 255 8 4 4 0 0 1 0 0 0 1 0 0 0 1
 -.0121685955061216 .01922637055552635 .0912995395105031 1 1 ?11 9 1 0 1 12 20 1
 0 4 0 0 12 12 88 21 22 0 0 0 0 1e3 1e-8 9 23 7 1 0 1 1 24 25 26 0 27 28 0 0 0 0
 0 0 0 0 100 20 2 9 0 0 1 0 0 0 1 0 0 0 1 -.0121685955061216 .01922637055552635
 .0912995395105031 1 1 ?81 1 21 88 5 12 0 0 0 0 29 70 22 0 4 T12 0 0 3 20 1 30 3
0 13 255 24 29 0 12 0 31 0 0 32 0 51 255 25 28 0 31 33 0 0 -0 .1 0 0 -1 0 .05 0
 0 -1 31 255 26 5 0 28 34 0 0 +0 .1 0 0 1 0 0 0 1 .05 19 8 CCCCCCCA5 owner12 0 Z
27 7 0 12 32 0 35 V0 16 255 28 4 0 ?36 0 37 26 0 0 12 17 255 36 0 38 36 36 0 39
 28 0 0 +16 37 53 0 ?40 28 0 34 0 0 12 17 40 0 41 40 40 0 42 37 0 0 +31 34 64 0
 37 0 26 0 +0 -1874699728327325e-49 702899814278107e-81 0 1 -3749399456654645e-4
8 0 3749399456654645e-48 1 .05 15 255 41 26 0 40 31 0 17 42 0 43 42 42 0 40 37 0
 0 -15 43 56 0 42 44 0 14 255 44 54 45 ?0 46 43 24 47 +0 0 0 46 35 81 1 45 87 48
 44 49 0 50 0 51 14 46 1 50 ?44 31 38 24 33 +0 0 44 31 35 53 255 47 62 0 44 0 33
 0 +0 0 0 .05 0 1 -3749399456654645e-48 0 3749399456654645e-48 1 13 35 8 0 0 0 0
 0 0 27 31 14 31 25 52 ?46 0 53 24 25 -0 0 46 0 35 81 1 52 85 48 31 54 0 0 50 55
 15 53 24 0 39 31 41 17 39 0 53 39 39 0 36 28 0 0 -80 255 1 48 0 56 8001 0 0 0 0
 3 5 0 0 0 FFFFTFTFFFFFFF2 81 1 54 83 57 31 0 52 58 0 59 81 1 50 86 48 46 58 0 5
2 45 60 83 255 3 55 .796078431372549 .811764705882353 .945098039215686 81 1 58 8
1 57 46 0 50 49 54 61 83 3 60 .796078431372549 .811764705882353 .945098039215686
 80 1 57 62 63 9000 1 1 1 1 1 1 1 1 0 FFFFTFTFFFFFFF1 81 1 49 79 57 44 0 45 0 58
 64 82 255 1 61 1749287024 82 1 64 -1971847049 79 255 14 63 SWEntUnchanged82 1 5
9 1751253104 79 15 56 SDL/TYSA_COLOUR50 255 33 2 0 46 47 25 0 +0 .1 0 0 1 0 0 0
 1 15 38 3 0 36 46 0 83 3 51 .796078431372549 .811764705882353 .945098039215686
 19 32 30 0 12 0 27 24 S0 74 4 CI16 index_map_offset0 0 1 dCCZ20 30 3 0 0 54 45
 21 0 0 0 0 0 0 0 0 0 0 0 0 0 0 0 0 0 80 1 5 65 66 8017 0 0 0 0 0 0 0 0 0 TTTTTT
TTTTTTTF3 84 255 5 29 Part279 13 66 SDL/TYSA_NAME81 1 10 289 5 7 0 0 0 0 67 70 1
1 0 4 T7 0 0 3 20 1 68 68 13 13 29 0 7 0 69 0 0 70 0 51 14 28 0 69 71 0 0 -0 0 .
04 0 0 -1 .0025 -1 0 0 32 255 15 168 0 18 72 0 0 +0 0 0 -.707106781186548 .70710
6781186548 0 -.707106781186548 -.707106781186548 0 .003535533905932735 .0025 29
 255 16 180 0 19 73 0 -.00176776695296637 .00176776695296637 .00176776695296637
 19 17 7 0 7 70 0 74 V0 16 18 166 0 ?75 0 76 15 0 0 7 18 255 19 178 0 77 0 78 16
 ?7 17 77 0 79 80 81 19 82 83 0 84 -18 78 171 0 85 19 86 73 ?7 17 85 0 87 88 84
 78 89 90 0 91 -18 86 160 0 92 78 93 94 ?7 29 73 173 0 78 94 16 -.00176776695296
637 .00176776695296637 -.00176776695296637 29 94 162 0 86 95 73 .001767766952966
37 .00176776695296637 .00176776695296637 29 95 126 0 93 96 94 0 -.0025 0 18 93 1
23 0 88 86 97 95 ?7 29 96 232 0 97 0 95 .00176776695296637 .00176776695296637 -.
00176776695296637 18 97 203 0 98 93 0 96 ?7 17 98 0 99 92 100 97 101 76 0 102 +1
5 99 167 0 92 103 0 17 92 0 99 100 98 86 75 18 0 81 -17 100 0 99 98 92 93 81 104
 0 101 +17 101 0 105 91 102 93 98 76 0 80 -16 76 69 0 ?98 18 106 72 0 0 7 17 102
 0 105 101 91 97 107 108 0 75 -15 105 175 0 102 109 0 17 91 0 105 102 101 78 88
 110 0 107 -17 107 0 111 89 75 78 102 108 0 0 +16 108 193 0 ?107 90 112 113 0 0
 7 17 75 0 111 107 82 97 92 18 0 0 +15 111 208 0 89 114 0 17 82 0 111 75 89 86 7
7 83 0 0 +17 89 0 111 82 107 19 85 90 0 0 +16 83 191 0 ?82 115 90 116 0 0 7 16 1
15 77 0 ?117 118 83 119 0 0 7 16 90 190 0 ?89 83 108 120 0 0 7 32 116 225 0 83 1
20 121 0 +0 0 0 0 .707106781186548 -.707106781186548 0 -.707106781186548 -.70710
6781186548 .003535533905932735 .0025 32 120 226 0 90 113 116 0 -0 0 0 -.70710678
1186548 -.707106781186548 0 -.707106781186548 .707106781186548 0 .00353553390593
2735 .0025 31 121 117 0 118 116 119 0 +.04 0 0 1 0 0 0 0 -1 .0025 16 118 82 0 ?1
22 123 115 121 0 0 7 31 119 116 0 115 121 124 0 +-.04 0 0 1 0 0 0 0 -1 .0025 31
 124 5 0 125 119 126 0 +0 0 .04 0 0 1 1 0 0 .0025 16 125 4 0 ?127 110 123 124 0
 0 7 31 126 23 0 123 124 128 0 +0 0 -.04 0 0 1 1 0 0 .0025 16 123 18 0 ?129 125
 118 126 0 0 7 32 128 58 0 110 126 130 0 -0 0 0 .707106781186548 0 -.70710678118
6548 -.707106781186548 0 -.707106781186548 .003535533905932735 .0025 16 110 172
 0 ?88 104 125 128 0 0 7 32 130 61 0 104 128 131 0 +0 0 0 .707106781186548 0 -.7
07106781186548 -.707106781186548 0 -.707106781186548 .003535533905932735 .0025 1
6 104 161 0 ?100 106 110 130 0 0 7 32 131 66 0 106 130 72 0 +0 0 0 -.70710678118
6548 0 -.707106781186548 .707106781186548 0 -.707106781186548 .00353553390593273
5 .0025 16 106 64 0 ?84 76 104 131 0 0 7 32 72 71 0 76 131 15 0 -0 0 0 -.7071067
81186548 0 -.707106781186548 .707106781186548 0 -.707106781186548 .0035355339059
32735 .0025 17 84 0 87 85 88 19 80 106 0 89 +15 87 182 0 85 132 0 17 88 0 87 84
 85 93 91 110 0 100 +17 80 0 79 81 77 93 84 106 0 0 -15 79 186 0 77 69 0 17 81 0
 79 77 80 86 100 104 0 82 -14 69 187 133 ?132 0 134 13 14 -109 109 132 0 74 81 1
 133 279 48 69 135 0 0 136 137 14 132 183 136 ?109 69 138 13 139 -103 103 109 69
 74 15 134 24 0 140 69 79 14 109 176 141 ?103 132 142 13 14 -69 69 103 132 74 13
 74 8 0 0 0 0 0 0 17 69 81 1 141 281 48 109 143 0 136 144 145 14 103 169 144 ?14
6 109 147 13 139 -132 132 146 109 74 15 142 26 0 129 109 105 17 129 0 142 129 12
9 0 148 123 0 0 +17 148 0 149 148 148 0 129 123 0 0 -15 149 17 0 148 150 0 14 15
0 16 151 ?152 153 149 13 71 -0 0 152 153 74 81 1 151 285 48 150 154 0 155 156 15
7 14 152 105 156 ?114 150 158 13 159 +0 0 114 150 74 14 153 108 155 ?150 146 160
 13 161 -0 0 150 146 74 50 71 22 0 150 162 14 0 +0 0 -.04 0 0 1 1 0 0 50 162 2 0
 146 139 71 0 +0 0 .04 0 0 1 1 0 0 14 146 1 163 ?153 103 164 13 162 +0 0 153 103
 74 51 139 113 0 132 161 162 0 -.04 0 0 -1 0 0 .0025 0 0 1 50 161 114 0 153 159
 139 0 +-.04 0 0 1 0 0 0 0 -1 50 159 115 0 152 165 161 0 +.04 0 0 1 0 0 0 0 -1 5
1 165 222 0 114 166 159 0 -0 .1 0 0 -1 0 .0025 0 0 -1 14 114 204 167 ?168 152 16
9 13 165 -0 0 168 152 74 50 166 224 0 168 0 165 0 +0 .1 0 0 1 0 0 0 1 14 168 214
 170 ?0 114 171 13 166 +0 0 0 114 74 81 1 170 288 48 168 172 0 167 0 173 15 171
 216 0 174 168 0 17 174 0 171 174 174 0 175 112 0 0 +17 175 0 169 175 175 0 174
 112 0 0 -16 112 197 0 ?174 108 0 176 0 0 7 31 176 229 0 112 0 113 0 +0 .1 0 0 1
 0 0 0 1 .0025 32 113 227 0 108 176 120 0 -0 0 0 0 -.707106781186548 -.707106781
186548 0 .707106781186548 -.707106781186548 .003535533905932735 .0025 15 169 207
 0 175 114 111 81 1 172 277 57 168 0 170 177 0 178 81 1 167 287 48 114 177 0 156
 170 179 83 3 173 .792156862745098 .819607843137255 .933333333333333 81 1 177 27
5 57 114 0 167 180 172 181 81 1 156 286 48 152 182 0 151 167 183 83 3 179 .79215
6862745098 .819607843137255 .933333333333333 81 1 182 269 57 152 0 156 154 184 1
85 83 3 183 .792156862745098 .819607843137255 .933333333333333 81 1 154 267 57 1
50 0 151 186 182 187 81 1 184 271 57 153 0 155 182 180 188 82 1 185 1713832086 8
1 1 155 284 48 153 184 0 163 151 189 81 1 180 273 57 146 0 163 184 177 190 82 1
 188 1715536022 81 1 163 283 48 146 180 0 144 155 191 82 1 190 569704594 81 1 14
4 282 48 103 186 0 141 163 192 83 3 191 .792156862745098 .819607843137255 .93333
3333333333 81 1 186 265 57 103 0 144 143 154 193 83 3 192 .792156862745098 .8196
07843137255 .933333333333333 81 1 143 263 57 109 0 141 194 186 195 82 1 193 -192
9248608 81 1 194 261 57 132 0 136 135 143 196 82 1 195 -1926692704 81 1 136 280
 48 132 194 0 133 141 197 81 1 135 259 57 69 0 133 0 194 198 82 1 196 -192597180
8 82 1 198 -1925578592 83 3 197 .792156862745098 .819607843137255 .9333333333333
33 83 3 189 .792156862745098 .819607843137255 .933333333333333 82 1 187 57140853
0 82 1 181 -1927479136 82 1 178 -1934163808 15 164 3 0 127 146 0 17 127 0 164 12
7 127 0 140 125 0 0 +17 140 0 134 140 140 0 127 125 0 0 -15 160 110 0 199 153 0
 17 199 0 160 199 199 0 117 115 0 0 -17 117 0 138 117 117 0 199 115 0 0 +15 138
 95 0 117 132 87 15 158 107 0 122 152 0 17 122 0 158 122 122 0 200 118 0 0 +17 2
00 0 147 200 200 0 122 118 0 0 -15 147 90 0 200 103 99 83 3 157 .792156862745098
 .819607843137255 .933333333333333 83 3 145 .792156862745098 .819607843137255 .9
33333333333333 83 3 137 .792156862745098 .819607843137255 .933333333333333 19 70
 30 0 7 0 17 13 S0 74 20 68 3 0 0 172 170 10 0 0 0 0 0 0 0 0 0 0 0 0 0 0 0 0 0 8
4 5 67 Part174 20 6 1 0 0 2 0 0 0 0 0 0 0 0 0 0 0 0 0 0 0 0 0 0 0 1 0 
