**ABCDEFGHIJKLMNOPQRSTUVWXYZabcdefghijklmnopqrstuvwxyz**************************
**PARASOLID !"#$%&'()*+,-./:;<=>?@[\]^_`{|}~0123456789**************************
**PART1;
MC=AMD64;
MC_MODEL=Intel64 Family 6 Model 60 Stepping 3, GenuineIntel;
MC_ID=unknown;
OS=Windows_NT;
OS_RELEASE=unknown;
FRU=Parasolid Version 28.0, build 209,  1-25-2016;
APPL=SOLIDWORKS 2016-2016095;
SITE=;
USER=unknown;
FORMAT=text;
GUISE=transmit;
KEY=Assem1;
FILE=Assem1.x_t;
DATE=Mon Sep 24 13:03:58 2018;
**PART2;
SCH=SCH_2800209_28002;
USFLD_SIZE=0;
**PART3;
**END_OF_HEADER*****************************************************************
T51 : TRANSMIT FILE created by modeller version 280020923 SCH_2800209_28002_1300
6200 0 10 255 1 5 2 3 0 0 0 0 0 1e3 1e-8 0 0 0 1 0 1 4 81 255 1 2 5 5 1 0 0 0 0
 0 70 11 CI9 list_type0 0 1 uI10 notransmit0 0 1 lCCCDCCDI12 finger_index0 0 1 d
I12 finger_block1012 0 CZ3 0 4 T1 0 0 1 20 1 6 6 11 255 4 3 0 1 7 8 1 9 0 0 0 12
 30 CCCCCCCCCCCCCDI5 owner1040 0 CCCCCCCCCA13 boundary_mesh1006 0 A16 index_map_
offset0 0 1 dA9 index_map82 0 A17 node_id_index_map82 0 A20 schema_embedding_map
82 0 A5 child12 0 A14 lowest_node_id0 0 1 dZ7 88 10 11 0 0 0 0 1e3 1e-8 4 12 0 1
 0 1 1 13 14 15 0 16 17 0 0 0 0 0 0 0 0 100 255 8 4 4 0 0 1 0 0 0 1 0 0 0 1 -.01
21685955061216 .01922637055552635 .0912995395105031 1 1 ?11 9 1 0 1 12 18 1 0 4
 0 0 12 12 405 19 20 0 0 0 0 1e3 1e-8 9 21 7 1 0 1 1 22 23 24 25 26 27 28 0 0 0
 0 0 0 0 100 18 2 9 0 0 1 0 0 0 1 0 0 0 1 -.0121685955061216 .01922637055552635
 .0912995395105031 1 1 ?81 1 19 405 5 12 0 0 0 0 29 70 20 0 4 T12 0 0 3 20 1 30
 30 13 255 22 29 0 12 0 31 0 0 32 0 51 255 23 28 0 33 34 0 0 -0 .1 0 0 -1 0 .005
 0 0 -1 31 255 24 23 0 35 36 0 0 +0 0 0 0 1 0 0 0 1 .005 29 255 25 189 0 28 37 0
 .00353553390593273 .00853553390593275 -.003535533905932745 19 8 CCCCCCCA5 owner
12 0 Z26 7 0 12 32 0 38 V0 16 255 27 4 0 ?39 0 35 36 0 0 12 18 255 28 187 0 40 0
 41 25 ?12 17 255 40 0 42 43 44 28 45 46 0 47 -18 41 183 0 43 28 48 37 ?12 17 43
 0 42 49 40 41 50 51 0 52 -18 48 171 0 53 41 54 55 ?12 29 37 185 0 41 55 25 -.00
3535533905932755 .00853553390593272 -.003535533905932715 29 55 173 0 48 56 37 .0
0353553390593273 .00146446609406726 -.003535533905932745 29 56 160 0 54 57 55 -.
003535533905932755 .001464466094067284 -.00353553390593272 18 54 158 0 58 48 59
 56 ?12 29 57 157 0 59 60 56 -.005 0 520660583833948e-31 18 59 155 0 61 54 62 57
 ?12 29 60 154 0 62 63 57 3061616997868385e-34 0 -.005 18 62 152 0 64 59 65 60 ?
12 29 63 151 0 65 66 60 .005 0 -1715124499455955e-32 18 65 149 0 67 62 68 63 ?12
 29 66 135 0 68 69 63 .003535533905932745 .00853553390593273 .00353553390593273
 18 68 133 0 70 65 71 66 ?12 29 69 132 0 71 72 66 .003535533905932745 .001464466
09406727 .00353553390593273 18 71 130 0 73 68 74 69 ?12 29 72 129 0 74 75 69 -.0
0353553390593272 .001464466094067246 .003535533905932755 18 74 127 0 76 71 77 72
 ?12 29 75 102 0 77 78 72 -3061616997868385e-34 0 .0050000000000523 18 77 77 0 7
9 74 80 75 ?12 29 78 318 0 80 0 75 -.00353553390593272 .00853553390593276 .00353
5533905932755 18 80 224 0 81 77 0 78 ?12 17 81 0 82 76 70 80 44 83 0 49 +15 255
 82 145 0 70 84 85 17 76 0 82 86 81 74 87 88 0 89 +17 70 0 82 81 90 68 91 92 0 4
4 +17 44 0 42 40 49 68 81 83 0 45 -16 83 134 0 ?81 93 94 95 0 0 12 17 49 0 42 44
 43 80 96 97 0 87 -15 42 180 0 44 31 0 17 96 0 98 99 87 41 49 97 0 0 +16 97 219
 0 ?96 100 88 101 0 0 12 17 87 0 98 96 102 80 76 88 0 0 -15 98 277 0 96 103 0 17
 102 0 98 87 104 74 61 100 0 0 +16 88 215 0 ?76 97 0 105 0 0 12 32 255 105 302 0
 88 106 107 0 --153080849893419e-33 .005 -1530808496261215e-34 -.707106781186551
 0 -.707106781186544 -.707106781186544 0 .707106781186551 .00707106781186551 .00
5 31 106 303 0 108 109 105 0 +-.04 .005 418671598961389e-30 -1 0 104744440165294
e-28 104744440165294e-28 0 1 .005 31 107 299 0 110 105 111 0 +3061616997868385e-
34 .005 -.04 0 0 -1 -1 0 0 .005 16 110 208 0 ?112 113 108 107 0 0 12 32 111 298
 0 114 107 115 0 +153080849893419e-33 .005 0 0 .707106781186548 -.70710678118654
8 0 -.707106781186548 -.707106781186548 .00707106781186547 .005 16 114 213 0 ?11
6 51 113 111 113 113 12 32 115 297 0 51 111 117 0 +153080849893419e-33 .005 0 0
 -.707106781186548 -.707106781186548 0 .707106781186548 -.707106781186548 .00707
106781186547 .005 16 51 211 0 ?50 118 114 115 0 0 12 32 117 296 0 118 115 119 0
 -153080849893419e-33 .005 -1530808496261215e-34 .707106781186544 0 -.7071067811
86551 -.707106781186551 0 -.707106781186544 .00707106781186544 .005 16 118 220 0
 ?99 120 51 117 0 0 12 31 119 295 0 120 117 121 0 +.04 .005 -1393530918539384e-3
1 1 0 -3491481338843135e-30 -3491481338843135e-30 0 -1 .005 16 120 202 0 ?122 12
3 118 119 0 0 12 32 121 294 0 124 119 125 0 +0 .005 1530808498280695e-34 .707106
781186548 .707106781186548 -2468850131082265e-30 .707106781186548 -.707106781186
548 -2468850131082265e-30 .00707106781186547 .005 16 124 206 0 ?126 46 123 121 1
23 123 12 32 125 293 0 92 121 127 0 --153080849893419e-33 .005 1530808498280695e
-34 .707106781186546 0 -.707106781186549 .707106781186549 0 .707106781186546 .00
707106781186546 .005 16 92 201 0 ?70 128 46 125 0 0 12 32 127 292 0 46 125 129 0
 +0 .005 1530808498280695e-34 .707106781186548 -.707106781186548 -24688501310822
65e-30 .707106781186548 .707106781186548 -2468850131082265e-30 .0070710678118654
7 .005 16 46 205 0 ?45 92 124 127 0 0 12 32 129 289 0 128 127 130 0 -15308084989
3419e-33 .005 1530808498280695e-34 .707106781186549 0 .707106781186546 .70710678
1186546 0 -.707106781186549 .00707106781186549 .005 16 128 212 0 ?131 132 92 129
 0 0 12 31 130 101 0 132 129 133 0 +-3061616997868385e-34 .005 .04 0 0 1 1 0 0 .
005 16 132 71 0 ?134 135 128 130 0 0 12 32 133 100 0 94 130 95 0 +-1530808498934
19e-33 .005 0 0 .707106781186548 .707106781186548 0 -.707106781186548 .707106781
186548 .00707106781186547 .005 16 94 128 0 ?86 83 135 133 135 135 12 32 95 99 0
 83 133 36 0 +-153080849893419e-33 .005 0 0 -.707106781186548 .707106781186548 0
 .707106781186548 .707106781186548 .00707106781186547 .005 31 36 5 0 27 95 24 0
 +0 .1 0 0 1 0 0 0 1 .005 17 86 0 82 90 76 77 89 94 0 136 +16 135 75 0 ?90 94 13
2 133 94 94 12 17 90 0 82 70 86 71 136 135 0 91 +17 136 0 137 138 73 77 90 135 0
 139 -17 91 0 140 126 45 71 70 92 0 0 -15 140 252 0 47 141 142 17 126 0 140 143
 91 65 73 124 0 0 +17 45 0 140 91 47 68 40 46 0 0 +17 47 0 140 45 143 28 131 128
 0 50 -17 143 0 140 47 126 48 67 123 0 131 +17 131 0 144 116 50 48 47 128 0 0 +1
7 50 0 144 131 52 28 43 51 0 0 +15 144 262 0 50 145 146 17 52 0 144 50 147 41 99
 118 0 96 -17 147 0 144 52 116 54 64 113 0 99 +17 99 0 98 104 96 54 52 118 0 0 +
17 104 0 98 102 99 59 58 148 0 0 +17 58 0 149 64 150 54 104 148 0 147 -16 148 22
1 0 ?104 108 100 109 100 100 12 16 108 216 0 ?151 110 148 106 0 0 12 16 100 222
 0 ?102 148 97 109 148 148 12 32 109 304 0 148 101 106 0 +0 .005 -15308084962612
15e-34 -.707106781186548 .707106781186548 74065503932468e-28 -.707106781186548 -
.707106781186548 74065503932468e-28 .00707106781186547 .005 32 101 305 0 97 0 10
9 0 +0 .005 -1530808496261215e-34 -.707106781186548 -.707106781186548 7406550393
2468e-28 -.707106781186548 .707106781186548 74065503932468e-28 .0070710678118654
7 .005 17 151 0 152 151 151 0 153 108 0 0 +15 152 272 0 151 154 0 17 153 0 155 1
53 153 0 151 108 0 0 -15 155 276 0 153 103 98 14 255 103 273 156 ?0 154 155 22 1
57 +0 0 154 158 38 81 1 156 404 159 103 160 0 161 0 162 14 154 268 161 ?103 145
 152 22 163 +0 0 0 103 38 51 157 286 0 103 163 164 0 +5e2 .005 -52372223144264e-
25 -1 0 104744440165294e-28 .005 104744440165294e-28 0 1 14 158 254 165 ?145 141
 166 22 164 +0 0 103 145 38 13 38 8 0 0 0 0 0 0 26 31 14 31 181 167 ?168 0 169 2
2 23 -168 33 168 0 38 81 1 167 390 159 31 170 0 0 171 172 14 168 177 171 ?173 31
 137 22 23 -173 31 173 31 38 15 169 24 0 174 31 42 14 33 25 175 ?176 177 178 22
 23 -31 177 176 177 38 81 1 175 394 159 33 179 0 180 181 182 14 176 1 181 ?183 3
3 184 22 185 +0 0 183 33 38 14 177 164 180 ?33 173 149 22 23 -33 173 33 173 38 1
5 178 60 0 89 33 0 17 89 0 178 61 79 74 86 94 0 102 -17 61 0 178 79 89 59 102 10
0 0 186 -17 79 0 178 89 61 77 186 93 0 86 +17 186 0 187 188 139 59 79 93 0 150 -
16 93 156 0 ?79 189 83 24 189 35 12 16 189 153 0 ?150 190 93 24 190 93 12 16 35
 18 0 ?138 27 190 24 93 190 12 17 138 0 137 73 136 65 139 35 0 126 +16 190 150 0
 ?191 35 189 24 35 189 12 17 191 0 192 53 67 62 193 190 0 116 +15 192 167 0 53 1
73 0 17 53 0 192 67 191 48 116 114 0 143 -17 67 0 192 191 53 65 143 123 0 193 -1
7 193 0 187 139 188 65 191 190 0 138 -17 116 0 144 147 131 62 53 114 0 0 +15 187
 17 0 139 183 0 17 139 0 187 186 193 77 138 35 0 0 -17 188 0 187 193 186 62 150
 189 0 191 -17 150 0 149 58 64 59 188 189 0 104 +15 149 163 0 58 177 0 17 64 0 1
49 150 58 62 147 113 0 188 -16 113 214 0 ?147 114 110 111 114 114 12 14 183 16 1
94 ?195 176 187 22 34 -0 0 84 176 38 81 1 194 396 159 183 196 0 181 197 198 14 1
95 84 197 ?84 183 199 22 200 +0 0 141 84 38 50 255 34 22 0 183 185 23 0 +0 0 0 0
 1 0 0 0 1 14 84 89 201 ?202 195 82 22 203 +0 0 195 183 38 81 1 201 398 159 84 2
04 0 197 205 206 14 202 244 205 ?141 84 207 22 208 +0 0 145 141 38 51 203 97 0 8
4 200 185 0 +-3061616997868385e-34 .005 -5e2 0 0 1 .005 1 0 0 50 200 98 0 195 20
9 203 0 +-3061616997868385e-34 .005 .04 0 0 1 1 0 0 50 185 2 0 176 203 34 0 +0 .
1 0 0 1 0 0 0 1 51 209 282 0 141 208 200 0 +-5e2 .005 1745740975583265e-27 1 0 -
3491481338843135e-30 .005 -3491481338843135e-30 0 -1 14 141 249 210 ?158 202 140
 22 209 +0 0 202 195 38 50 208 283 0 202 211 209 0 +.04 .005 -1393530918539384e-
31 1 0 -3491481338843135e-30 -3491481338843135e-30 0 -1 51 211 284 0 145 164 208
 0 +3061616997868385e-34 .005 5e2 0 0 -1 .005 -1 0 0 14 145 259 212 ?154 158 144
 22 211 +0 0 158 202 38 50 164 285 0 158 157 211 0 +3061616997868385e-34 .005 -.
04 0 0 -1 -1 0 0 81 1 212 402 159 145 213 0 165 161 214 80 255 1 159 0 215 8001
 0 0 0 0 3 5 0 0 0 FFFFTFTFFFFFFF2 81 1 213 386 216 145 0 212 217 218 219 81 1 1
65 401 159 158 220 0 210 212 221 81 1 161 403 159 154 222 0 212 156 223 83 255 3
 214 .792156862745098 .819607843137255 .933333333333333 81 1 222 362 216 154 0 1
61 160 220 224 83 3 223 .792156862745098 .819607843137255 .933333333333333 80 1
 216 225 226 9000 1 1 1 1 1 1 1 1 0 FFFFTFTFFFFFFF1 81 1 160 360 216 103 0 156 0
 222 227 81 1 220 364 216 158 0 165 222 170 228 82 255 1 224 36372604 81 1 170 3
66 216 31 0 167 220 229 230 82 1 228 12451964 81 1 229 368 216 168 0 171 170 179
 231 82 1 230 77267068 81 1 171 391 159 168 229 0 167 232 233 81 1 179 370 216 3
3 0 175 229 234 235 82 1 231 76873852 81 1 234 372 216 176 0 181 179 236 237 82
 1 235 467730556 81 1 181 395 159 176 234 0 175 194 238 81 1 236 374 216 177 0 1
80 234 196 239 82 1 237 465764460 81 1 180 393 159 177 236 0 232 175 240 81 1 19
6 376 216 183 0 194 236 241 242 82 1 239 75628668 81 1 241 378 216 195 0 197 196
 204 243 82 1 242 467468412 81 1 197 397 159 195 241 0 194 201 244 81 1 204 380
 216 84 0 201 241 245 246 82 1 243 -576389000 81 1 245 382 216 202 0 205 204 217
 247 82 1 246 -571473796 81 1 205 399 159 202 245 0 201 210 248 81 1 217 384 216
 141 0 210 245 213 249 82 1 247 -21168004 81 1 210 400 159 141 217 0 205 165 250
 82 1 249 -13631364 83 3 250 .792156862745098 .819607843137255 .933333333333333
 83 3 248 .792156862745098 .819607843137255 .933333333333333 83 3 244 .792156862
745098 .819607843137255 .933333333333333 81 1 232 392 159 173 218 0 171 180 251
 83 3 240 .792156862745098 .819607843137255 .933333333333333 14 173 169 232 ?177
 168 192 22 23 -177 168 177 168 38 81 1 218 388 216 173 0 232 213 0 252 83 3 251
 .792156862745098 .819607843137255 .933333333333333 82 1 252 76087420 83 3 238 .
792156862745098 .819607843137255 .933333333333333 83 3 233 .792156862745098 .819
607843137255 .933333333333333 82 1 227 45154428 79 255 14 226 SWEntUnchanged83 3
 221 .792156862745098 .819607843137255 .933333333333333 82 1 219 19726460 79 15
 215 SDL/TYSA_COLOUR15 207 248 0 122 202 0 17 122 0 207 122 122 0 253 120 0 0 +1
7 253 0 142 253 253 0 122 120 0 0 -15 142 253 0 253 141 0 83 3 206 .792156862745
098 .819607843137255 .933333333333333 15 199 88 0 134 195 0 17 134 0 199 134 134
 0 254 132 0 0 +17 254 0 85 254 254 0 134 132 0 0 -15 85 92 0 254 84 0 83 3 198
 .792156862745098 .819607843137255 .933333333333333 16 123 207 0 ?143 124 120 12
1 124 124 12 15 137 175 0 138 168 0 17 73 0 137 136 138 71 126 124 0 90 -15 184
 3 0 39 176 0 17 39 0 184 39 39 0 174 27 0 0 +17 174 0 169 174 174 0 39 27 0 0 -
83 3 182 .792156862745098 .819607843137255 .933333333333333 83 3 172 .7921568627
45098 .819607843137255 .933333333333333 15 166 258 0 112 158 0 17 112 0 166 112
 112 0 255 110 0 0 +17 255 0 146 255 255 0 112 110 0 0 -15 146 263 0 255 145 0 5
0 163 288 0 154 0 157 0 +-.04 .005 418671598961389e-30 -1 0 104744440165294e-28
 104744440165294e-28 0 1 83 3 162 .792156862745098 .819607843137255 .93333333333
3333 19 32 30 0 12 0 26 22 S0 74 4 CI16 index_map_offset0 0 1 dCCZ20 30 3 0 0 21
8 156 19 0 0 0 0 0 0 0 0 0 0 0 0 0 0 0 0 0 80 1 5 256 257 8017 0 0 0 0 0 0 0 0 0
 TTTTTTTTTTTTTF3 84 255 5 29 Part179 13 257 SDL/TYSA_NAME81 1 10 88 5 7 0 0 0 0
 258 70 11 0 4 T7 0 0 3 20 1 259 259 13 13 29 0 7 0 260 0 0 261 0 51 14 28 0 260
 262 0 0 -0 .1 0 0 -1 0 .05 0 0 -1 31 15 5 0 17 263 0 0 +0 .1 0 0 1 0 0 0 1 .05
 19 16 7 0 7 261 0 264 V0 16 17 4 0 ?265 0 266 15 0 0 7 17 265 0 267 265 265 0 2
68 17 0 0 +16 266 53 0 ?269 17 0 263 0 0 7 17 269 0 270 269 269 0 271 266 0 0 +3
1 263 64 0 266 0 15 0 +0 -1874699728327325e-49 702899814278107e-81 0 1 -37493994
56654645e-48 0 3749399456654645e-48 1 .05 15 270 26 0 269 260 0 17 271 0 272 271
 271 0 269 266 0 0 -15 272 56 0 271 273 0 14 273 54 274 ?0 275 272 13 276 +0 0 0
 275 264 81 1 274 87 159 273 277 0 278 0 279 14 275 1 278 ?273 260 267 13 262 +0
 0 273 260 264 53 255 276 62 0 273 0 262 0 +0 0 0 .05 0 1 -3749399456654645e-48
 0 3749399456654645e-48 1 13 264 8 0 0 0 0 0 0 16 260 14 260 25 280 ?275 0 281 1
3 14 -0 0 275 0 264 81 1 280 85 159 260 282 0 0 278 283 15 281 24 0 268 260 270
 17 268 0 281 268 268 0 265 17 0 0 -81 1 282 83 216 260 0 280 284 0 285 81 1 278
 86 159 275 284 0 280 274 286 83 3 283 .796078431372549 .811764705882353 .945098
039215686 81 1 284 81 216 275 0 278 277 282 287 83 3 286 .796078431372549 .81176
4705882353 .945098039215686 81 1 277 79 216 273 0 274 0 284 288 82 1 287 1749287
024 82 1 288 -1971847049 82 1 285 1751253104 50 262 2 0 275 276 14 0 +0 .1 0 0 1
 0 0 0 1 15 267 3 0 265 275 0 83 3 279 .796078431372549 .811764705882353 .945098
039215686 19 261 30 0 7 0 16 13 S0 74 20 259 3 0 0 282 274 10 0 0 0 0 0 0 0 0 0
 0 0 0 0 0 0 0 0 84 5 258 Part274 20 6 1 0 0 2 0 0 0 0 0 0 0 0 0 0 0 0 0 0 0 0 0
 0 0 1 0 
