**ABCDEFGHIJKLMNOPQRSTUVWXYZabcdefghijklmnopqrstuvwxyz**************************
**PARASOLID !"#$%&'()*+,-./:;<=>?@[\]^_`{|}~0123456789**************************
**PART1;
MC=AMD64;
MC_MODEL=Intel64 Family 6 Model 60 Stepping 3, GenuineIntel;
MC_ID=unknown;
OS=Windows_NT;
OS_RELEASE=unknown;
FRU=Parasolid Version 28.0, build 209,  1-25-2016;
APPL=SOLIDWORKS 2016-2016095;
SITE=;
USER=unknown;
FORMAT=text;
GUISE=transmit;
KEY=tank_without_shaft;
FILE=tank_without_shaft.x_t;
DATE=Mon Oct 01 16:31:02 2018;
**PART2;
SCH=SCH_2800209_28002;
USFLD_SIZE=0;
**PART3;
**END_OF_HEADER*****************************************************************
T51 : TRANSMIT FILE created by modeller version 280020923 SCH_2800209_28002_1300
6200 0 10 255 1 9 2 3 0 0 0 0 0 1e3 1e-8 0 0 0 1 0 1 4 81 255 1 2 9 5 1 0 0 0 0
 0 70 11 CI9 list_type0 0 1 uI10 notransmit0 0 1 lCCCDCCDI12 finger_index0 0 1 d
I12 finger_block1012 0 CZ3 0 4 T1 0 0 1 20 1 6 6 11 255 4 7 0 1 7 8 1 9 0 9 0 12
 30 CCCCCCCCCCCCCDI5 owner1040 0 CCCCCCCCCA13 boundary_mesh1006 0 A16 index_map_
offset0 0 1 dA9 index_map82 0 A17 node_id_index_map82 0 A20 schema_embedding_map
82 0 A5 child12 0 A14 lowest_node_id0 0 1 dZ7 69 10 11 0 0 0 0 1e3 1e-8 4 12 0 1
 0 1 1 13 14 15 0 16 17 0 0 0 0 0 0 0 0 100 255 8 8 4 0 0 1 0 0 0 1 0 0 0 1 -.00
835899350275862 -.0456474366816927 .0367030438547472 1 1 ?11 9 5 0 1 7 18 1 19 4
 0 4 100 18 6 9 0 0 1 0 0 0 1 0 0 0 1 -.00835899350275862 -.0456474366816927 .03
67030438547472 1 1 ?11 19 3 0 1 12 20 1 21 9 0 0 12 12 201 22 23 0 0 0 0 1e3 1e-
8 19 24 7 1 0 1 1 25 26 27 28 29 30 31 0 0 0 0 0 0 0 100 20 4 19 0 0 1 0 0 0 1 0
 0 0 1 -.00835899350275862 -.04064743668169265 .0367030438547472 1 1 ?11 21 1 0
 1 24 32 1 0 19 0 0 12 24 91 33 34 0 0 0 0 1e3 1e-8 21 35 12 1 0 1 1 36 37 38 0
 39 40 0 0 0 0 0 0 0 0 100 32 2 21 0 0 1 0 0 0 1 0 0 0 1 -.00835899350275862 -.0
3814743668169265 .0367030438547472 1 1 ?81 1 33 91 5 24 0 0 0 0 41 70 34 0 4 T24
 0 0 3 20 1 42 42 13 255 36 29 0 24 0 43 0 0 44 0 51 255 37 28 0 43 45 0 0 -0 .1
 0 0 -1 0 .05 0 0 -1 31 255 38 5 0 40 46 0 0 +0 .1 0 0 1 0 0 0 1 .05 19 8 CCCCCC
CA5 owner12 0 Z39 7 0 24 44 0 47 V0 16 255 40 4 0 ?48 0 49 38 0 0 24 17 255 48 0
 50 48 48 0 51 40 0 0 +16 49 53 0 ?52 40 0 46 0 0 24 17 52 0 53 52 52 0 54 49 0
 0 +31 46 64 0 49 0 38 0 +0 -1874699728327325e-49 702899814278107e-81 0 1 -37493
99456654645e-48 0 3749399456654645e-48 1 .05 15 255 53 26 0 52 43 0 17 54 0 55 5
4 54 0 52 49 0 0 -15 55 56 0 54 56 0 14 255 56 54 57 ?0 58 55 36 59 +0 0 0 58 47
 81 1 57 90 60 56 61 0 62 0 63 14 58 1 62 ?56 43 50 36 45 +0 0 56 43 47 53 255 5
9 62 0 56 0 45 0 +0 0 0 .05 0 1 -3749399456654645e-48 0 3749399456654645e-48 1 1
3 47 8 0 0 0 0 0 0 39 43 14 43 25 64 ?58 0 65 36 37 -0 0 58 0 47 81 1 64 88 60 4
3 66 0 0 62 67 15 65 24 0 51 43 53 17 51 0 65 51 51 0 48 40 0 0 -80 255 1 60 0 6
8 8001 0 0 0 0 3 5 0 0 0 FFFFTFTFFFFFFF2 81 1 66 86 69 43 0 64 70 0 71 81 1 62 8
9 60 58 70 0 64 57 72 83 255 3 67 .796078431372549 .811764705882353 .94509803921
5686 81 1 70 84 69 58 0 62 61 66 73 83 3 72 .796078431372549 .811764705882353 .9
45098039215686 80 1 69 74 75 9000 1 1 1 1 1 1 1 1 0 FFFFTFTFFFFFFF1 81 1 61 82 6
9 56 0 57 0 70 76 82 255 1 73 1749287024 82 1 76 -1971847049 79 255 14 75 SWEntU
nchanged82 1 71 1751253104 79 15 68 SDL/TYSA_COLOUR50 255 45 2 0 58 59 37 0 +0 .
1 0 0 1 0 0 0 1 15 50 3 0 48 58 0 83 3 63 .796078431372549 .811764705882353 .945
098039215686 19 44 30 0 24 0 39 36 S0 74 4 CI16 index_map_offset0 0 1 dCCZ20 42
 3 0 0 66 57 33 0 0 0 0 0 0 0 0 0 0 0 0 0 0 0 0 0 80 1 5 77 78 8017 0 0 0 0 0 0
 0 0 0 TTTTTTTTTTTTTF3 84 255 5 41 Part279 13 78 SDL/TYSA_NAME81 1 22 201 5 12 0
 0 0 0 79 70 23 0 4 T12 0 0 3 20 1 80 80 13 25 29 0 12 0 81 0 0 82 0 51 26 28 0
 83 84 0 0 -0 0 .04 0 0 -1 .0025 -1 0 0 32 255 27 72 0 30 85 0 0 -0 0 0 -.707106
781186548 0 -.707106781186548 .707106781186548 0 -.707106781186548 .003535533905
932735 .0025 29 255 28 127 0 31 86 0 0 -.0025 0 19 29 7 0 12 82 0 87 V0 16 30 70
 0 ?88 0 89 27 0 0 12 18 255 31 124 0 90 0 91 28 ?12 17 90 0 92 93 93 31 94 95 0
 96 +18 91 53 0 97 31 0 86 ?12 17 97 0 98 99 99 91 100 101 0 94 -29 86 55 0 91 0
 28 0 .0025 0 15 98 66 0 99 81 0 17 99 0 98 97 97 31 93 89 0 100 -17 100 0 102 8
8 88 31 97 101 0 0 +16 101 60 0 ?100 89 95 103 0 0 12 17 94 0 104 96 96 91 90 95
 0 93 -15 104 71 0 96 83 0 17 96 0 104 94 94 31 88 30 0 99 -16 95 57 0 ?90 101 1
05 106 0 0 12 17 93 0 92 90 90 91 99 89 0 88 +15 92 97 0 90 107 0 16 89 65 0 ?93
 30 101 85 0 0 12 17 88 0 102 100 100 91 96 30 0 0 +15 102 92 0 100 108 0 14 108
 88 109 ?110 83 111 25 112 -107 107 110 83 87 81 1 109 199 60 108 113 0 114 115
 116 14 110 106 115 ?0 108 117 25 118 +0 0 0 108 87 14 83 73 114 ?108 119 120 25
 26 -81 81 108 119 87 15 111 91 0 121 108 102 51 112 114 0 108 122 123 0 -.04 0
 0 -1 0 0 .0025 0 0 1 14 107 93 124 ?119 125 126 25 112 -108 108 119 125 87 13 8
7 8 0 0 0 0 0 0 29 81 14 81 68 127 ?128 0 129 25 26 -83 83 128 0 87 81 1 127 193
 60 81 130 0 0 131 132 14 128 1 131 ?125 81 133 25 123 +0 0 125 81 87 15 129 24
 0 134 81 98 17 134 0 129 134 134 0 135 105 0 0 -17 135 0 133 135 135 0 134 105
 0 0 +16 105 4 0 ?135 95 136 137 0 0 12 16 136 18 0 ?138 105 139 140 0 0 12 31 1
37 5 0 105 141 140 0 +0 0 .04 0 0 1 1 0 0 .0025 31 141 117 0 142 143 137 0 +-.04
 0 0 1 0 0 0 0 -1 .0025 31 140 23 0 136 137 106 0 +0 0 -.04 0 0 1 1 0 0 .0025 32
 106 59 0 95 140 103 0 -0 0 0 .707106781186548 0 -.707106781186548 -.70710678118
6548 0 -.707106781186548 .003535533905932735 .0025 32 103 62 0 101 106 85 0 +0 0
 0 .707106781186548 0 -.707106781186548 -.707106781186548 0 -.707106781186548 .0
03535533905932735 .0025 32 85 67 0 89 103 27 0 +0 0 0 -.707106781186548 0 -.7071
06781186548 .707106781186548 0 -.707106781186548 .003535533905932735 .0025 16 14
2 78 0 ?144 139 0 141 0 0 12 31 143 118 0 139 0 141 0 +.04 0 0 1 0 0 0 0 -1 .002
5 16 139 83 0 ?145 136 142 143 0 0 12 17 145 0 117 145 145 0 121 139 0 0 +15 117
 108 0 145 110 0 17 121 0 111 121 121 0 145 139 0 0 -17 144 0 126 144 144 0 146
 142 0 0 +15 126 96 0 144 107 92 17 146 0 147 146 146 0 144 142 0 0 -15 147 111
 0 146 125 0 14 125 109 148 ?107 128 147 25 122 -0 0 107 128 87 81 1 148 195 60
 125 149 0 131 124 150 50 122 115 0 125 118 112 0 +-.04 0 0 1 0 0 0 0 -1 50 118
 116 0 110 0 122 0 +.04 0 0 1 0 0 0 0 -1 81 1 149 189 69 125 0 148 151 152 153 8
1 1 131 194 60 128 151 0 127 148 154 81 1 124 196 60 107 155 0 148 156 157 83 3
 150 .792156862745098 .819607843137255 .933333333333333 81 1 155 183 69 107 0 12
4 158 130 159 81 1 156 197 60 119 152 0 124 114 160 83 3 157 .792156862745098 .8
19607843137255 .933333333333333 14 119 16 156 ?83 107 161 25 84 -0 0 83 107 87 8
1 1 152 191 69 119 0 156 149 0 162 81 1 114 198 60 83 158 0 156 109 163 83 3 160
 .792156862745098 .819607843137255 .933333333333333 81 1 158 181 69 83 0 114 164
 155 165 83 3 163 .792156862745098 .819607843137255 .933333333333333 81 1 164 17
9 69 110 0 115 113 158 166 82 1 165 1659109552 81 1 115 200 60 110 164 0 109 0 1
67 81 1 113 177 69 108 0 109 0 164 168 82 1 166 1653342384 82 1 168 1660944560 8
3 3 167 .792156862745098 .819607843137255 .933333333333333 82 1 162 571408530 15
 161 17 0 169 119 0 50 84 22 0 119 123 26 0 +0 0 -.04 0 0 1 1 0 0 50 123 2 0 128
 112 84 0 +0 0 .04 0 0 1 1 0 0 17 169 0 161 169 169 0 138 136 0 0 -17 138 0 120
 138 138 0 169 136 0 0 +15 120 26 0 138 83 104 81 1 130 185 69 81 0 127 155 151
 170 82 1 159 1660485808 81 1 151 187 69 128 0 131 130 149 171 82 1 170 16586508
00 82 1 171 569704594 83 3 154 .792156862745098 .819607843137255 .93333333333333
3 82 1 153 1655046320 15 133 3 0 135 128 0 83 3 132 .792156862745098 .8196078431
37255 .933333333333333 83 3 116 .792156862745098 .819607843137255 .9333333333333
33 19 82 30 0 12 0 29 25 S0 74 20 80 3 0 0 152 115 22 0 0 0 0 0 0 0 0 0 0 0 0 0
 0 0 0 0 84 5 79 Part181 1 10 69 5 7 0 0 0 0 172 70 11 0 4 T7 0 0 3 20 1 173 173
 13 13 29 0 7 0 174 0 0 175 0 51 14 28 0 174 176 0 0 -0 .01 0 0 -1 0 .045 0 0 -1
 31 15 23 0 177 178 0 0 +0 0 0 0 1 0 0 0 1 .045 19 16 7 0 7 175 0 179 V0 16 17 4
 0 ?180 0 177 178 0 0 7 17 180 0 181 180 180 0 182 17 0 0 +16 177 18 0 ?183 17 0
 15 0 0 7 31 178 5 0 17 0 15 0 +0 .01 0 0 1 0 0 0 1 .045 17 183 0 184 183 183 0
 185 177 0 0 +15 184 26 0 183 174 0 17 185 0 186 185 185 0 183 177 0 0 -15 186 1
7 0 185 187 0 14 187 16 188 ?0 189 186 13 176 -0 0 0 189 179 81 1 188 68 60 187
 190 0 191 0 192 14 189 1 191 ?187 174 181 13 193 +0 0 187 174 179 50 176 22 0 1
87 193 14 0 +0 0 0 0 1 0 0 0 1 13 179 8 0 0 0 0 0 0 16 174 14 174 25 194 ?189 0
 195 13 14 -0 0 189 0 179 81 1 194 66 60 174 196 0 0 191 197 15 195 24 0 182 174
 184 17 182 0 195 182 182 0 180 17 0 0 -81 1 196 64 69 174 0 194 198 0 199 81 1
 191 67 60 189 198 0 194 188 200 83 3 197 .792156862745098 .819607843137255 .933
333333333333 81 1 198 62 69 189 0 191 190 196 201 83 3 200 .792156862745098 .819
607843137255 .933333333333333 81 1 190 60 69 187 0 188 0 198 202 82 1 201 417465
38 82 1 202 43450474 82 1 199 43712618 50 193 2 0 189 0 176 0 +0 .01 0 0 1 0 0 0
 1 15 181 3 0 180 189 0 83 3 192 .792156862745098 .819607843137255 .933333333333
333 19 175 30 0 7 0 16 13 S0 74 20 173 3 0 0 196 188 10 0 0 0 0 0 0 0 0 0 0 0 0
 0 0 0 0 0 84 5 172 Part374 20 6 1 0 0 2 0 0 0 0 0 0 0 0 0 0 0 0 0 0 0 0 0 0 0 1
 0 
